PathFileType	4	(X/Y/Z)	6_coords_data.trc
DataRate	CameraRate	NumFrames	NumMarkers	Units	OrigDataRate	OrigDataStartFrame	OrigNumFrames
30.0	30.0	8	21	m	30.0	29	77
Frame#	Time	THUMB_TIP	THUMB_IP	THUMB_MCP	THUMB_CMC	INDEX_TIP	INDEX_DIP	INDEX_PIP	INDEX_MCP	MIDDLE_TIP	MIDDLE_DIP	MIDDLE_PIP	MIDDLE_MCP	RING_TIP	RING_DIP	RING_PIP	RING_MCP	PINKY_TIP	PINKY_DIP	PINKY_PIP	PINKY_MCP	WRIST
X1	Y1	Z1	X2	Y2	Z2	X3	Y3	Z3	X4	Y4	Z4	X5	Y5	Z5	X6	Y6	Z6	X7	Y7	Z7	X8	Y8	Z8	X9	Y9	Z9	X10	Y10	Z10	X11	Y11	Z11	X12	Y12	Z12	X13	Y13	Z13	X14	Y14	Z14	X15	Y15	Z15	X16	Y16	Z16	X17	Y17	Z17	X18	Y18	Z18	X19	Y19	Z19	X20	Y20	Z20	X21	Y21	Z21
27	0.9333333333333294	0.47445147620594386	-0.0390680337705972	-0.17152253008792062	0.48412972956246303	-0.03550910449717892	-0.15098803631783136	0.47817678045176504	-0.030905796663512453	-0.1207855206299959	0.4768626084309566	-0.026041233711415424	-0.0764628517213572	0.49821362567059113	-0.011099637719386046	-0.10086753829197198	0.5158117868516378	-0.01524802086547028	-0.10191426668042175	0.5342242188419593	-0.0010803270285967281	-0.1115199229592195	0.4980570037063524	0.021184987921260667	-0.11465431181805624	0.49749933576475913	-0.017629461861747076	-0.08670061340065255	0.5153683190880043	-0.0148332179870595	-0.08576228766463995	0.5368472784435953	0.0037593342990982492	-0.09227234561272024	0.503347249236069	0.03324627957419779	-0.09437377903735528	0.49963130351502183	-0.0072178472954189665	-0.07258120051027367	0.5175606006210243	-0.008096161615631536	-0.07091720855127742	0.5384680365144004	0.005083563980454842	-0.07397562915286887	0.51240616742373	0.03596117971733537	-0.07253595561129428	0.5070693665072793	-0.009899588735751585	-0.05411978205222456	0.5237660273266432	-0.013133711752381538	-0.05605936082000457	0.5405246082956436	-0.0004886071773927414	-0.05631098194999418	0.5172679161479881	0.026261000171014515	-0.04964253175109362	0.462283081001861	-0.023011742144276925	-0.051989820119430985
28	0.9666666666666625	0.4744827477623291	-0.03909235957496793	-0.17152448244768345	0.48414550141981905	-0.03552562200170539	-0.15098404489542702	0.4781883504055411	-0.030893837854427453	-0.12078671177797914	0.4768625650549022	-0.026026765893614745	-0.07646466417486969	0.4982196406189463	-0.01111329143650397	-0.10084166933137206	0.5158265485413526	-0.015223299369681476	-0.10189268227188436	0.5342480126684803	-0.0010558304140024788	-0.11148133785037001	0.4980810611016453	0.021208777069301354	-0.11462378307290369	0.49754836145940506	-0.017619524287718513	-0.0866937008013251	0.5154142989312333	-0.014807282380136955	-0.08574524220656893	0.5368818788919648	0.003801693915624904	-0.0922459007773122	0.5033567845421347	0.03326023295914471	-0.09434600726423442	0.49964197635419594	-0.007143590886183437	-0.07250768537214647	0.5175727714837131	-0.008086331258288282	-0.07089590790174671	0.5384766089485183	0.005103095407992808	-0.07393705611579382	0.5124065054854475	0.03597382510875746	-0.07249879773597584	0.5070976525077636	-0.009861671822240625	-0.05411631922313098	0.523797758535335	-0.013089704585611206	-0.056036283583862756	0.540550922331902	-0.0004373511599917723	-0.056284224299776586	0.5172536710567854	0.0262752924558598	-0.0496091808484877	0.4622830810018609	-0.023011742144276925	-0.051989820119430985
29	0.9999999999999956	0.47449022107699845	-0.039117583906977726	-0.1715133854645702	0.4841540993787745	-0.03554353059664883	-0.15097474872540495	0.4781938091136433	-0.030890048283454097	-0.12078137126748928	0.4768724439469859	-0.026026839785901257	-0.07645876758487968	0.4982830782195121	-0.011067311681048686	-0.1008446097824705	0.5158796695225369	-0.01523269593218779	-0.10184937271703476	0.5342991812182472	-0.0010619320952374167	-0.1114369101573254	0.498136729150055	0.021208140767885686	-0.11459238303581756	0.4976566767343007	-0.017591597906324474	-0.08667388035937479	0.515524940859959	-0.01479262799129255	-0.08573000295713529	0.5369645391666028	0.0038541249257880716	-0.09221473734638413	0.503392935648462	0.033259898294723644	-0.09431136578164873	0.49968519334721917	-0.007097900901205323	-0.07245270713117513	0.5176156868944221	-0.008088899566372043	-0.07086673020847051	0.5385145713128983	0.0051111330100386265	-0.07389588009661952	0.5124297903280418	0.03596932827379218	-0.07245476246223498	0.507098115374068	-0.009864956148524673	-0.054100739877535886	0.5238042639868264	-0.013067942489115358	-0.05601005311281665	0.5405623283671727	-0.000421624955799893	-0.05623354823742377	0.5172483524077969	0.026279321144901058	-0.04957010668721018	0.462283081001861	-0.023011742144276925	-0.051989820119430985
30	1.0333333333333288	0.47451635712199147	-0.03919275464642946	-0.17149839937275094	0.484174974887843	-0.03560840226000339	-0.1509590829083917	0.47821289046197235	-0.030924184589594006	-0.12077081276724225	0.4768828871913704	-0.0260499318814863	-0.07644968065356883	0.4983398257378957	-0.01111228487450644	-0.1007852735053989	0.5159364878178377	-0.015276695073103586	-0.10179283062147215	0.5343632811292741	-0.001102463446392421	-0.11136123064707426	0.49821542778109673	0.021184566056496323	-0.11456390269647723	0.49773107047926946	-0.017598954506643616	-0.0866303977014653	0.5156000234095751	-0.014801093302882484	-0.08569632390405368	0.5370335046513216	0.0038564354216106267	-0.09217027584660148	0.5034473214526808	0.03324471305046206	-0.09427867741103202	0.49973654836725456	-0.007041578022968564	-0.07244250662852303	0.5176601158252324	-0.008097104684216205	-0.07082028807151053	0.5385629292782272	0.00509933938013496	-0.07383794159796969	0.5124714735416739	0.03595213515541085	-0.07240205706340747	0.5071435883549548	-0.009861895453240344	-0.054065440601160475	0.5238531709246372	-0.013056144197040598	-0.055959279377216675	0.540607669888769	-0.0004049528248855072	-0.056174082370724965	0.5172583733622318	0.026265207829268666	-0.049511025009613796	0.462283081001861	-0.023011742144276925	-0.051989820119430985
31	1.0666666666666622	0.47455916730162373	-0.03923895545297318	-0.17147668244199493	0.48421696636822265	-0.03563688313741464	-0.15094008115982835	0.4782424006951026	-0.03091202528863024	-0.12076061324990067	0.47690216869138113	-0.026028895497322457	-0.07644076643588921	0.4984007635730381	-0.01111944172486512	-0.10071622172809985	0.5159949179754332	-0.015296542739506425	-0.10171499997083905	0.5344314291306023	-0.0011231931069349832	-0.11126597110566133	0.49830450414595273	0.021192164906955857	-0.11450729519704633	0.4977599929375176	-0.017552400239570276	-0.08658839343197677	0.515638023048296	-0.014820790088390878	-0.08563217936594386	0.5370756039702786	0.003836679914130281	-0.09209271241813666	0.5035077840426457	0.03324457633254174	-0.0942199205767334	0.49977915716771415	-0.007015449359042747	-0.07240308485507818	0.5176988804692086	-0.008112913428488189	-0.07076629243874927	0.5386047492254338	0.005083570543728433	-0.07376253029955404	0.5125147259595677	0.03593802593541562	-0.07233631065695006	0.5071523712914476	-0.00984889327909877	-0.05402996078127703	0.5238633598448958	-0.013041480819843243	-0.055914170525759255	0.5406189207061137	-0.00039134112622463135	-0.05610695267732013	0.51725380111722	0.026267387478269955	-0.04945362067082876	0.4622830810018609	-0.023011742144276925	-0.051989820119430985
32	1.0999999999999952	0.474634428841342	-0.03931742167387364	-0.1714454035335574	0.48428760437662377	-0.03568987129042234	-0.1509111131805756	0.47829309019074995	-0.030926036582045846	-0.1207417300488868	0.4769300107603469	-0.026026744094508003	-0.07642436384118023	0.4984783885521602	-0.01113437667368189	-0.10064837150518297	0.5160717459022124	-0.015316770295591642	-0.10163900804033332	0.5345223110696469	-0.0011450809354774938	-0.11116527166689102	0.4984111940545157	0.02118990530373177	-0.1144473002490082	0.4977954889198384	-0.017516869770135557	-0.08654338675998346	0.515683792558751	-0.014861700055958438	-0.0855642714904768	0.5371302807997125	0.0037933849425624278	-0.09200208911978763	0.5035912640002734	0.03323228207386886	-0.09415467101586233	0.4998388315963239	-0.00704610706834119	-0.07239580973221127	0.5177539980422904	-0.008134316448672685	-0.07070388433259106	0.5386661790558177	0.005056911480266768	-0.0736791439824766	0.5125763332155561	0.0359118358193633	-0.07225984061109414	0.5071868062561165	-0.009852699583906444	-0.053989228695432545	0.5238903762255857	-0.013096643554263987	-0.05585137202832213	0.5406316396033871	-0.0004271987337505223	-0.05601656117764975	0.5172726512560388	0.026242891423215786	-0.04938727724891828	0.4622830810018609	-0.023011742144276925	-0.051989820119430985
33	1.1333333333333284	0.4747266146561986	-0.039406168866165325	-0.1714113095379537	0.48437858422601887	-0.03575590198568401	-0.1508804782073786	0.47835889613949334	-0.030944466921854263	-0.12072366391993283	0.47695474497182977	-0.026018467743318507	-0.0764105406764577	0.49854218529074834	-0.01119419122173504	-0.10052519136889809	0.5161352668781257	-0.015377958787644141	-0.10151492325902356	0.5346110632696061	-0.0012269921799314965	-0.1110230736978817	0.4985458540398887	0.021170507286751628	-0.11438295388274572	0.4978612788499702	-0.017545504641839016	-0.08647325318303967	0.5157488179473466	-0.014892410411593504	-0.0854747362601645	0.5372120194801919	0.0037467363032361867	-0.09190301283351765	0.503696529311767	0.03321060291267419	-0.09408025976289247	0.4999106049386872	-0.007015388879904716	-0.0724244003335826	0.5178118397095154	-0.008157298528793655	-0.0706238903965169	0.5387329890618655	0.0050234920963632135	-0.07358231012205235	0.5126458074783306	0.03588126468023589	-0.07217601634418347	0.5072308380766386	-0.00981089432437332	-0.05393715373644237	0.5239305313886982	-0.01308956722224186	-0.055773058775362205	0.5406684449030382	-0.0004155786115307425	-0.0559288884324981	0.5172798337272971	0.02623061599464882	-0.04930796468428794	0.462283081001861	-0.023011742144276925	-0.051989820119430985
34	1.1666666666666616	0.47478817729114087	-0.03949651206173577	-0.17137143534844815	0.4844526138571964	-0.03582471709581336	-0.150850309950729	0.4784035484788016	-0.030953355939723926	-0.12070899862333567	0.47697659518497804	-0.02600135767597045	-0.07639950170119686	0.49861645026541934	-0.011240469368109296	-0.10038611140840148	0.5162111958354592	-0.01540700863052058	-0.10141804110578878	0.5347116235965848	-0.0012840578655898272	-0.11091994972178348	0.49867614008788297	0.021155541102167663	-0.11431765784054615	0.49793322867994694	-0.01758192428370864	-0.08640363040481192	0.5158188337797961	-0.014923983936511953	-0.08538358956102432	0.5372981913206767	0.0036991387593239278	-0.09180434112815927	0.5038067783602298	0.03318897222394779	-0.09400045158566617	0.4999748387187821	-0.007036084215534366	-0.07241558632552725	0.5178675420943816	-0.00819062499036316	-0.07053989938147848	0.5388015408919882	0.004973048684992931	-0.07348359921511322	0.5127275444972567	0.035842325779733786	-0.07208528678377246	0.507246414247837	-0.009808239474651481	-0.05389118204311816	0.5239504944831135	-0.01308003202283603	-0.055699240951198214	0.5406981064663903	-0.00041871819530370225	-0.055842921215478236	0.5172917492933627	0.026212738077430187	-0.04922541173818046	0.462283081001861	-0.023011742144276925	-0.051989820119430985
